<svg xmlns="http://www.w3.org/2000/svg" viewBox="0 0 109.864 109.864"><rect x=".707" y=".707" width="108.449" height="108.449" rx="7.546" ry="7.546" fill="#fff"/><rect x=".707" y=".707" width="108.449" height="108.449" rx="7.546" ry="7.546" fill="none" stroke="#6b6459" stroke-miterlimit="10" stroke-width="1.415"/><path d="M78.558 15.075c.143 0 .292.01.448.03 1.081.14 3.091 1.582 3.581 2.791.453 1.116.314 2.023-1.315 4.14L55.006 53.058l-8.558-10.047 29.349-26.616c1.094-.862 1.794-1.321 2.761-1.321m0-1.5c-1.485 0-2.507.712-3.689 1.642l-.041.032-.039.035L45.44 41.899l-1.077.977.943 1.107 8.558 10.047 1.145 1.345 1.141-1.348 26.266-31.022.023-.027.021-.028c1.575-2.046 2.328-3.622 1.516-5.62-.715-1.76-3.226-3.513-4.779-3.714a5.07 5.07 0 0 0-.64-.043Z" fill="#6b6459"/><path d="m45.262 44.052 8.977 10.558 35.512 42.744c.872 1.093 1.419 2.186 1.047 3.419-.37 1.225-1.236 2.384-2.721 2.837a3.555 3.555 0 0 1-1.045.158c-.99 0-1.919-.424-2.688-1.123L39.848 60.266c-3.495-3.495-2.97-8.151.437-11.558l4.977-4.656m.124-2.17-1.149 1.075-4.977 4.656c-1.986 1.985-3.138 4.371-3.279 6.752-.152 2.566.818 4.973 2.807 6.961l44.521 42.404c1.113 1.014 2.392 1.537 3.722 1.537.497 0 .996-.075 1.483-.224 1.792-.547 3.148-1.946 3.719-3.838.618-2.046-.452-3.712-1.31-4.788L55.392 53.652l-8.988-10.571-1.019-1.198Z" fill="#6b6459"/><g fill="#6b6459"><path d="m54.239 54.61 9.557 11.503 5.761-5.356c3.513-3.513 3.465-8.318.04-11.743L25.895 7.09s-1.671-2.029-3.437-2.071c-1.766-.043-3.511.995-4.23 2.718-.688 1.651-.194 2.809 1.315 4.97l29.306 35.565 5.388 6.338ZM45.534 65.682 28.418 86.706c-1.255 1.337-2.032 3.683-1.331 5.368.733 1.76 2.403 2.841 4.287 2.841 1.061 0 1.937-.373 3.082-1.523l20.328-18.899-9.25-8.81Z"/></g></svg>